<?xml version="1.0" standalone="no"?>
<!DOCTYPE svg PUBLIC "-//W3C//DTD SVG 20010904//EN"
 "http://www.w3.org/TR/2001/REC-SVG-20010904/DTD/svg10.dtd">
<svg version="1.0" xmlns="http://www.w3.org/2000/svg"
 width="48.000000pt" height="48.000000pt" viewBox="0 0 48.000000 48.000000"
 preserveAspectRatio="xMidYMid meet">

<g transform="translate(0.000000,48.000000) scale(0.100000,-0.100000)"
fill="#000000" stroke="none">
<path d="M162 433 c-7 -2 -17 -13 -22 -24 -13 -24 1 -54 44 -92 19 -18 26 -30
19 -33 -38 -16 -80 -54 -96 -87 -16 -31 -17 -42 -7 -72 36 -109 220 -111 273
-2 32 65 10 101 -136 220 -76 62 -55 85 46 51 43 -15 48 -14 71 3 14 10 26 21
26 24 0 13 -190 24 -218 12z m110 -190 c55 -60 63 -109 22 -149 -31 -32 -67
-27 -106 17 -39 42 -37 82 6 125 19 19 38 34 43 34 5 0 21 -12 35 -27z"/>
</g>
</svg>
